HIERARCHY
ROOT hip
{
  OFFSET 45.6009 49.4999 29.0041
  CHANNELS 6 Xposition Yposition Zposition Zrotation Xrotation Yrotation
  JOINT abdomen
  {
    OFFSET 0 20.6881 -0.73152
    CHANNELS 3 Zrotation Xrotation Yrotation
    JOINT chest
    {
      OFFSET 0 11.7043 -0.48768
      CHANNELS 3 Zrotation Xrotation Yrotation
      JOINT neck
      {
        OFFSET 0 22.1894 -2.19456
        CHANNELS 3 Zrotation Xrotation Yrotation
        JOINT head
        {
          OFFSET -0.24384 7.07133 1.2192
          CHANNELS 3 Zrotation Xrotation Yrotation
          JOINT leftEye
          {
            OFFSET 4.14528 8.04674 8.04672
            CHANNELS 3 Zrotation Xrotation Yrotation
            End Site
            {
              OFFSET 1 0 0
            }
          }
          JOINT rightEye
          {
            OFFSET -3.6576 8.04674 8.04672
            CHANNELS 3 Zrotation Xrotation Yrotation
            End Site
            {
              OFFSET 1 0 0
            }
          }
        }
      }
      JOINT rCollar
      {
        OFFSET -2.68224 19.2634 -4.8768
        CHANNELS 3 Zrotation Xrotation Yrotation
        JOINT rShldr
        {
          OFFSET -8.77824 -1.95073 1.46304
          CHANNELS 3 Zrotation Xrotation Yrotation
          JOINT rForeArm
          {
            OFFSET -28.1742 -1.7115 0.48768
            CHANNELS 3 Zrotation Xrotation Yrotation
            JOINT rHand
            {
              OFFSET -22.5879 0.773209 7.07136
              CHANNELS 3 Zrotation Xrotation Yrotation
              JOINT rThumb1
              {
                OFFSET -1.2192 -0.487915 3.41376
                CHANNELS 3 Zrotation Xrotation Yrotation
                JOINT rThumb2
                {
                  OFFSET -3.37035 -0.52449 3.41376
                  CHANNELS 3 Zrotation Xrotation Yrotation
                  End Site
                  {
                    OFFSET -1.78271 -1.18214 1.43049
                  }
                }
              }
              JOINT rIndex1
              {
                OFFSET -7.75947 0.938293 5.60832
                CHANNELS 3 Zrotation Xrotation Yrotation
                JOINT rIndex2
                {
                  OFFSET -2.54057 -0.884171 1.56538
                  CHANNELS 3 Zrotation Xrotation Yrotation
                  End Site
                  {
                    OFFSET -1.62519 -0.234802 1.16502
                  }
                }
              }
              JOINT rMid1
              {
                OFFSET -8.24714 1.18213 3.41376
                CHANNELS 3 Zrotation Xrotation Yrotation
                JOINT rMid2
                {
                  OFFSET -3.10165 -0.590103 1.0647
                  CHANNELS 3 Zrotation Xrotation Yrotation
                  End Site
                  {
                    OFFSET -2.48547 -0.328903 0.83742
                  }
                }
              }
              JOINT rRing1
              {
                OFFSET -8.82822 0.546677 1.51678
                CHANNELS 3 Zrotation Xrotation Yrotation
                JOINT rRing2
                {
                  OFFSET -2.60934 -0.819778 -0.0198488
                  CHANNELS 3 Zrotation Xrotation Yrotation
                  End Site
                  {
                    OFFSET -2.33842 -0.294052 0.168128
                  }
                }
              }
              JOINT rPinky1
              {
                OFFSET -8.27202 -0.0477905 -0.4584
                CHANNELS 3 Zrotation Xrotation Yrotation
                JOINT rPinky2
                {
                  OFFSET -1.82734 -0.647385 -0.700984
                  CHANNELS 3 Zrotation Xrotation Yrotation
                  End Site
                  {
                    OFFSET -1.69225 -0.51767 -0.607171
                  }
                }
              }
            }
          }
        }
      }
      JOINT lCollar
      {
        OFFSET 2.68224 19.2634 -4.8768
        CHANNELS 3 Zrotation Xrotation Yrotation
        JOINT lShldr
        {
          OFFSET 8.77824 -1.95073 1.46304
          CHANNELS 3 Zrotation Xrotation Yrotation
          JOINT lForeArm
          {
            OFFSET 28.1742 -1.7115 0.48768
            CHANNELS 3 Zrotation Xrotation Yrotation
            JOINT lHand
            {
              OFFSET 22.5879 0.773209 7.07136
              CHANNELS 3 Zrotation Xrotation Yrotation
              JOINT lThumb1
              {
                OFFSET 1.2192 -0.487915 3.41376
                CHANNELS 3 Zrotation Xrotation Yrotation
                JOINT lThumb2
                {
                  OFFSET 3.37035 -0.52449 3.41376
                  CHANNELS 3 Zrotation Xrotation Yrotation
                  End Site
                  {
                    OFFSET 1.78271 -1.18214 1.43049
                  }
                }
              }
              JOINT lIndex1
              {
                OFFSET 7.75947 0.938293 5.60832
                CHANNELS 3 Zrotation Xrotation Yrotation
                JOINT lIndex2
                {
                  OFFSET 2.54057 -0.884171 1.56538
                  CHANNELS 3 Zrotation Xrotation Yrotation
                  End Site
                  {
                    OFFSET 1.62519 -0.234802 1.16502
                  }
                }
              }
              JOINT lMid1
              {
                OFFSET 8.24714 1.18213 3.41376
                CHANNELS 3 Zrotation Xrotation Yrotation
                JOINT lMid2
                {
                  OFFSET 3.10165 -0.590103 1.0647
                  CHANNELS 3 Zrotation Xrotation Yrotation
                  End Site
                  {
                    OFFSET 2.48547 -0.328903 0.83742
                  }
                }
              }
              JOINT lRing1
              {
                OFFSET 8.82822 0.546677 1.51678
                CHANNELS 3 Zrotation Xrotation Yrotation
                JOINT lRing2
                {
                  OFFSET 2.60934 -0.819778 -0.0198488
                  CHANNELS 3 Zrotation Xrotation Yrotation
                  End Site
                  {
                    OFFSET 2.33842 -0.294052 0.168128
                  }
                }
              }
              JOINT lPinky1
              {
                OFFSET 8.27202 -0.0477905 -0.4584
                CHANNELS 3 Zrotation Xrotation Yrotation
                JOINT lPinky2
                {
                  OFFSET 1.82734 -0.647385 -0.700984
                  CHANNELS 3 Zrotation Xrotation Yrotation
                  End Site
                  {
                    OFFSET 1.69225 -0.51767 -0.607171
                  }
                }
              }
            }
          }
        }
      }
    }
  }
  JOINT rButtock
  {
    OFFSET -8.77824 4.35084 1.2192
    CHANNELS 3 Zrotation Xrotation Yrotation
    JOINT rThigh
    {
      OFFSET 0 -1.70687 -2.19456
      CHANNELS 3 Zrotation Xrotation Yrotation
      JOINT rShin
      {
        OFFSET 0 -36.8199 0.73152
        CHANNELS 3 Zrotation Xrotation Yrotation
        JOINT rFoot
        {
          OFFSET 0.73152 -45.1104 -5.12064
          CHANNELS 3 Zrotation Xrotation Yrotation
          End Site
          {
            OFFSET -1.1221 -3.69964 12.103
          }
        }
      }
    }
  }
  JOINT lButtock
  {
    OFFSET 8.77824 4.35084 1.2192
    CHANNELS 3 Zrotation Xrotation Yrotation
    JOINT lThigh
    {
      OFFSET 0 -1.70687 -2.19456
      CHANNELS 3 Zrotation Xrotation Yrotation
      JOINT lShin
      {
        OFFSET 0 -36.8199 0.73152
        CHANNELS 3 Zrotation Xrotation Yrotation
        JOINT lFoot
        {
          OFFSET -0.73152 -45.1104 -5.12064
          CHANNELS 3 Zrotation Xrotation Yrotation
          End Site
          {
            OFFSET 1.1221 -3.69964 12.103
          }
        }
      }
    }
  }
}
MOTION
Frames:	8
Frame Time:	0.00833333
49.4123 2.26311 63.5104 -2.06931 0.00896489 0.0395047 2.7222 0.00051883 0.0736095 0.750731 0.0131632 0.129911 -3.58376e-014 0 4.96962e-016 -1.08207e-013 3.18055e-015 1.48778e-015 -0 0 0 -0 0 0 -1.79914e-014 8.63859e-017 3.97569e-016 -3.7508e-013 1.8077e-015 4.96962e-015 -6.52123e-012 2.00713e-012 1.65389e-013 -7.45262e-011 -1.60126e-012 8.68291e-013 -1.75828e-010 8.80488e-013 2.28364e-012 -3.03661e-010 1.51712e-012 3.94786e-012 -1.75823e-010 8.82206e-013 2.27728e-012 7.73091 5.47488 0.417314 -1.75826e-010 8.81212e-013 2.28364e-012 2.90554 0.965183 0.102902 -1.75813e-010 8.81014e-013 2.28284e-012 10.2786 0.731801 0.0259123 -1.7583e-010 8.81411e-013 2.29e-012 2.22167 -0.733487 -0.20892 -1.80892e-014 8.75507e-017 9.93923e-017 -3.81322e-013 1.82633e-015 3.18055e-015 -6.5099e-012 -1.88428e-012 1.62208e-013 -7.45903e-011 2.30168e-012 8.96916e-013 -1.75929e-010 9.06285e-013 2.28046e-012 -3.03817e-010 1.56165e-012 3.94548e-012 -1.75935e-010 9.08446e-013 2.27728e-012 -7.73091 5.47488 -0.417314 -1.7593e-010 9.0606e-013 2.27728e-012 -2.90554 0.965183 -0.102902 -1.75935e-010 9.06756e-013 2.28125e-012 -10.2786 0.731801 -0.0259123 -1.75927e-010 9.0606e-013 2.2741e-012 -2.22167 -0.733487 0.20892 -2.03217e-016 0 -3.88251e-019 2.53849 -8.65133 -0.274876 0.00735964 10.0921 0.189187 -0.522716 -1.45171 0.029215 2.03217e-016 0 3.88251e-019 1.61335 -1.93183 -0.00962375 0.00855953 -2.07866 0.0702819 0.453083 3.9995 -0.131621 
56.5369 -3.07347 53.1344 0.654785 1.82114 32.0843 6.22759 9.61809 -1.25295 2.52489 -1.99529 0.628487 -0.962251 3.04271 1.3427 -2.65034 -15.6708 0.893786 -0 0 0 -0 0 0 4.25905e-014 -7.07312e-014 2.08802e-014 14.2227 -2.81948 5.93081 -7.16195 -4.17597 10.0056 0.233936 -10.7681 -1.41875 -1.52529e-010 8.73146e-010 -1.03435e-009 -2.29897e-010 1.4647e-009 -1.79041e-009 -1.52524e-010 8.73148e-010 -1.03436e-009 7.73091 5.47488 0.417314 -1.52528e-010 8.73146e-010 -1.03435e-009 2.90554 0.965183 0.102902 -1.52518e-010 8.73146e-010 -1.03435e-009 10.2786 0.731801 0.0259123 -1.52533e-010 8.73147e-010 -1.03434e-009 2.22167 -0.733487 -0.20892 4.24693e-014 -7.07522e-014 2.05944e-014 -3.1848 -7.71692 -2.87535 -0.352794 16.8698 40.4053 -0.0987056 6.98035 -0.954951 -4.28097e-010 -8.93952e-010 4.87498e-010 -7.26857e-010 -1.48616e-009 8.49303e-010 -4.28102e-010 -8.93949e-010 4.87498e-010 -7.73091 5.47488 -0.417314 -4.28097e-010 -8.93952e-010 4.87496e-010 -2.90554 0.965183 -0.102902 -4.28104e-010 -8.93951e-010 4.87498e-010 -10.2786 0.731801 -0.0259123 -4.28091e-010 -8.93945e-010 4.87493e-010 -2.22167 -0.733487 0.20892 -2.03217e-016 0 -3.88251e-019 -13.6864 -29.8682 -8.04716 -1.92335 37.1991 1.39278 4.16112 -2.2489 6.38117 2.03217e-016 0 3.88251e-019 7.4004 -11.2273 -3.37085 -7.85289 34.1917 5.607 -1.95786 -13.6649 -0.0595537 
56.5193 -3.15927 53.1348 1.84841 1.79586 65.9933 10.4409 19.7639 -2.78191 4.43631 -4.11469 1.15671 -2.14468 6.24695 2.77297 -4.81053 -32.2098 2.10321 -0 0 0 -0 0 0 1.0609e-013 -1.56682e-013 4.8168e-014 29.9065 -5.69745 12.2499 -13.1557 -8.15255 20.7322 -0.140023 -22.0965 -3.09093 -1.33318e-010 1.80517e-009 -2.13398e-009 -1.61166e-010 3.02875e-009 -3.69407e-009 -1.33312e-010 1.80517e-009 -2.13399e-009 7.73091 5.47488 0.417314 -1.33318e-010 1.80517e-009 -2.13399e-009 2.90554 0.965183 0.102902 -1.3331e-010 1.80517e-009 -2.13398e-009 10.2786 0.731801 0.0259123 -1.33322e-010 1.80517e-009 -2.13398e-009 2.22167 -0.733487 -0.20892 1.05943e-013 -1.56727e-013 4.78947e-014 -7.42979 -15.7935 -6.08248 -16.3101 7.79541 82.0369 0.057513 14.3709 -2.01526 -7.22544e-010 -1.96684e-009 9.93765e-010 -1.22222e-009 -3.27783e-009 1.73208e-009 -7.22547e-010 -1.96684e-009 9.9377e-010 -7.73091 5.47488 -0.417314 -7.22543e-010 -1.96684e-009 9.93764e-010 -2.90554 0.965183 -0.102902 -7.22552e-010 -1.96684e-009 9.93764e-010 -10.2786 0.731801 -0.0259123 -7.22534e-010 -1.96682e-009 9.93761e-010 -2.22167 -0.733487 0.20892 -2.03217e-016 0 -3.88251e-019 -40.3234 -50.596 -22.4801 -6.90328 65.7818 5.08416 9.30088 -3.04594 13.1028 2.03217e-016 0 3.88251e-019 12.2421 -20.9342 -7.26405 -37.5881 70.4412 29.3655 -4.45317 -32.3398 0.00955583 
56.5149 -3.19047 53.1958 3.13388 -0.683987 96.0814 14.7312 28.7886 -4.39763 6.17858 -6.01014 1.63348 -3.31884 9.10796 4.07387 -5.90818 -46.9554 3.78378 -0 0 0 -0 0 0 1.63755e-013 -2.12366e-013 6.18453e-014 44.4027 -8.09534 17.9557 -17.2666 -11.0006 30.556 -1.14334 -32.2177 -4.944 -1.05932e-010 2.61768e-009 -3.10762e-009 -8.23688e-011 4.39107e-009 -5.37911e-009 -1.05926e-010 2.61768e-009 -3.10763e-009 7.73091 5.47488 0.417314 -1.05932e-010 2.61768e-009 -3.10762e-009 2.90554 0.965183 0.102902 -1.05926e-010 2.61768e-009 -3.10761e-009 10.2786 0.731801 0.0259123 -1.05937e-010 2.61768e-009 -3.10761e-009 2.22167 -0.733487 -0.20892 1.63586e-013 -2.12432e-013 6.15844e-014 -12.0367 -22.9074 -9.28591 -22.354 -22.5603 101.097 0.443483 20.9169 -3.04442 -9.32433e-010 -2.68367e-009 1.45793e-009 -1.57294e-009 -4.4616e-009 2.54002e-009 -9.32436e-010 -2.68366e-009 1.45794e-009 -7.73091 5.47488 -0.417314 -9.32431e-010 -2.68367e-009 1.45793e-009 -2.90554 0.965183 -0.102902 -9.32442e-010 -2.68367e-009 1.45793e-009 -10.2786 0.731801 -0.0259123 -9.32419e-010 -2.68365e-009 1.45793e-009 -2.22167 -0.733487 0.20892 -2.03217e-016 0 -3.88251e-019 -82.9156 -63.7223 -51.849 -119.274 86.7137 115.912 14.0471 -3.67178 19.111 2.03217e-016 0 3.88251e-019 15.3047 -29.3863 -11.3796 -156.403 68.165 140.224 -6.61681 -48.9936 0.135637 
56.542 -3.15229 53.2381 5.11288 -3.57643 116.903 18.1175 35.0716 -5.77065 7.42402 -7.34761 1.97435 -4.16838 11.1299 5.00843 -5.85529 -57.2676 5.72596 -0 0 0 -0 0 0 2.06831e-013 -1.92388e-013 4.14963e-014 54.7138 -9.63918 21.9728 -19.557 -12.4646 37.6149 -2.37586 -39.3999 -6.62908 -5.81087e-011 3.13139e-009 -3.76624e-009 2.15976e-011 5.24907e-009 -6.5176e-009 -5.81028e-011 3.1314e-009 -3.76625e-009 7.73091 5.47488 0.417314 -5.81096e-011 3.13139e-009 -3.76625e-009 2.90554 0.965183 0.102902 -5.81048e-011 3.13139e-009 -3.76624e-009 10.2786 0.731801 0.0259123 -5.81141e-011 3.13139e-009 -3.76623e-009 2.22167 -0.733487 -0.20892 2.06655e-013 -1.92461e-013 4.12478e-014 -15.7672 -27.84 -11.8663 -24.2887 -49.0164 102.358 0.860781 25.3751 -3.82211 -9.30928e-010 -2.51035e-009 1.81685e-009 -1.56202e-009 -4.12565e-009 3.16085e-009 -9.3093e-010 -2.51035e-009 1.81686e-009 -7.73091 5.47488 -0.417314 -9.30926e-010 -2.51035e-009 1.81685e-009 -2.90554 0.965183 -0.102902 -9.30937e-010 -2.51035e-009 1.81685e-009 -10.2786 0.731801 -0.0259123 -9.30912e-010 -2.51033e-009 1.81685e-009 -2.22167 -0.733487 0.20892 -2.03217e-016 0 -3.88251e-019 -125.491 -65.016 -83.9059 -173.978 70.395 169.294 17.4435 -4.02172 23.3139 2.03217e-016 0 3.88251e-019 16.6171 -35.0984 -14.8701 -178.836 46.2081 155.247 -7.97809 -60.5945 0.42237 
56.5663 -3.26476 53.2862 6.28364 -4.85704 124.963 19.6143 37.5663 -6.40797 7.93786 -7.90424 2.11959 -4.40969 12.0054 5.40156 -5.7952 -61.4418 6.67394 -0 0 0 -0 0 0 2.29631e-013 -2.0749e-014 -4.3601e-014 58.621 -10.2022 23.5173 -20.3994 -12.965 40.5744 -3.08459 -42.5718 -7.51213 8.61559e-011 3.28613e-009 -4.18345e-009 2.84247e-010 5.49188e-009 -7.23325e-009 8.61618e-011 3.28613e-009 -4.18346e-009 7.73091 5.47488 0.417314 8.61548e-011 3.28613e-009 -4.18345e-009 2.90554 0.965183 0.102902 8.61604e-011 3.28613e-009 -4.18344e-009 10.2786 0.731801 0.0259123 8.61512e-011 3.28613e-009 -4.18344e-009 2.22167 -0.733487 -0.20892 2.2947e-013 -2.08109e-014 -4.38312e-014 -17.3671 -29.8842 -13.1244 -27.2728 -59.5657 98.2668 1.04659 26.9456 -4.11706 -4.56196e-010 -2.4917e-010 2.10547e-009 -7.37016e-010 -2.02773e-010 3.64926e-009 -4.56197e-010 -2.49168e-010 2.10548e-009 -7.73091 5.47488 -0.417314 -4.56193e-010 -2.49169e-010 2.10547e-009 -2.90554 0.965183 -0.102902 -4.56204e-010 -2.49169e-010 2.10547e-009 -10.2786 0.731801 -0.0259123 -4.56179e-010 -2.49142e-010 2.10546e-009 -2.22167 -0.733487 0.20892 -2.03217e-016 0 -3.88251e-019 -141.508 -63.207 -95.456 -176.7 63.4027 171.402 18.8001 -4.09181 24.9571 2.03217e-016 0 3.88251e-019 17.1269 -37.3174 -16.4639 175.886 37.2371 156.889 -8.28461 -65.0939 0.902041 
56.5777 -3.44565 53.3944 6.21001 -4.70372 123.912 19.5659 37.3731 -6.37771 7.92113 -7.90358 2.12358 -4.18303 12.0653 5.39846 -6.47795 -61.2613 6.20513 -0 0 0 -0 0 0 2.37941e-013 2.57041e-013 -1.74132e-013 57.8387 -10.1348 23.2711 -20.4323 -13.0662 40.5674 -3.12672 -42.9048 -7.59187 2.96077e-010 3.18162e-009 -4.41871e-009 6.54364e-010 5.29096e-009 -7.63058e-009 2.96083e-010 3.18162e-009 -4.41871e-009 7.73091 5.47488 0.417314 2.96076e-010 3.18162e-009 -4.41871e-009 2.90554 0.965183 0.102902 2.96084e-010 3.18162e-009 -4.41871e-009 10.2786 0.731801 0.0259123 2.96074e-010 3.18162e-009 -4.4187e-009 2.22167 -0.733487 -0.20892 2.3781e-013 2.57004e-013 -1.7434e-013 -17.182 -29.9255 -13.2768 -26.9239 -58.2782 98.599 0.998929 26.4576 -4.02785 3.48114e-010 3.46327e-009 2.34021e-009 6.54823e-010 6.2127e-009 4.03692e-009 3.48114e-010 3.46327e-009 2.34021e-009 -7.73091 5.47488 -0.417314 3.48117e-010 3.46327e-009 2.34021e-009 -2.90554 0.965183 -0.102902 3.48109e-010 3.46327e-009 2.3402e-009 -10.2786 0.731801 -0.0259123 3.48131e-010 3.46329e-009 2.3402e-009 -2.22167 -0.733487 0.20892 -2.03217e-016 0 -3.88251e-019 -140.06 -63.3014 -94.4271 -176.466 64.0595 171.173 18.6709 -3.98578 24.7711 2.03217e-016 0 3.88251e-019 17.506 -37.1536 -16.3881 176.428 38.118 156.41 -7.9969 -64.5213 1.37379 
56.6014 -3.50287 53.4715 5.65892 -4.00723 119.226 18.8654 36.1068 -6.07095 7.69627 -7.6815 2.07154 -3.79196 11.7758 5.23321 -7.34496 -59.3295 5.24016 -0 0 0 -0 0 0 2.4022e-013 5.04121e-013 -2.95459e-013 55.2218 -9.85467 22.3288 -20.158 -13.0285 39.375 -2.86616 -42.0501 -7.31414 4.23734e-010 2.8785e-009 -4.26184e-009 8.69951e-010 4.76714e-009 -7.35282e-009 4.23739e-010 2.8785e-009 -4.26185e-009 7.73091 5.47488 0.417314 4.23733e-010 2.8785e-009 -4.26185e-009 2.90554 0.965183 0.102902 4.23743e-010 2.8785e-009 -4.26184e-009 10.2786 0.731801 0.0259123 4.23732e-010 2.87849e-009 -4.26184e-009 2.22167 -0.733487 -0.20892 2.4012e-013 5.0411e-013 -2.95653e-013 -16.2255 -29.1877 -12.9337 -25.2199 -52.2709 100.733 0.861384 25.1176 -3.78362 1.00061e-009 6.40954e-009 2.43011e-009 1.78091e-009 1.12903e-008 4.17704e-009 1.00061e-009 6.40954e-009 2.43011e-009 -7.73091 5.47488 -0.417314 1.00062e-009 6.40954e-009 2.43011e-009 -2.90554 0.965183 -0.102902 1.00061e-009 6.40954e-009 2.4301e-009 -10.2786 0.731801 -0.0259123 1.00063e-009 6.40957e-009 2.4301e-009 -2.22167 -0.733487 0.20892 -2.03217e-016 0 -3.88251e-019 -131.722 -64.1539 -88.4437 -175.056 67.784 170.024 17.9521 -3.78801 23.8883 2.03217e-016 0 3.88251e-019 17.6584 -36.0118 -15.7527 179.377 42.9397 155.08 -7.56441 -61.9627 1.73352 
